<svg width="1200" height="630" viewBox="0 0 1200 630" fill="none" xmlns="http://www.w3.org/2000/svg">
  <!-- Background -->
  <rect width="1200" height="630" fill="#b8952e"/>
  
  <!-- Globe Icon (Large) -->
  <circle cx="600" cy="250" r="80" fill="#fbbf24" stroke="#f59e0b" stroke-width="3"/>
  
  <!-- Globe Details -->
  <path d="M520 250c0-44.183 35.817-80 80-80s80 35.817 80 80" stroke="#f59e0b" stroke-width="4" fill="none"/>
  <path d="M520 250c0 44.183 35.817 80 80 80s80-35.817 80-80" stroke="#f59e0b" stroke-width="4" fill="none"/>
  <line x1="520" y1="250" x2="680" y2="250" stroke="#f59e0b" stroke-width="4"/>
  <line x1="600" y1="170" x2="600" y2="330" stroke="#f59e0b" stroke-width="4"/>
  
  <!-- Horizontal Lines -->
  <line x1="400" y1="220" x2="480" y2="220" stroke="#fbbf24" stroke-width="4"/>
  <line x1="720" y1="220" x2="800" y2="220" stroke="#fbbf24" stroke-width="4"/>
  <line x1="400" y1="280" x2="480" y2="280" stroke="#fbbf24" stroke-width="4"/>
  <line x1="720" y1="280" x2="800" y2="280" stroke="#fbbf24" stroke-width="4"/>
  
  <!-- Main Text -->
  <text x="600" y="420" font-family="Arial, sans-serif" font-size="72" font-weight="bold" text-anchor="middle" fill="#ffffff">VISA CRONY</text>
  
  <!-- Subtitle -->
  <text x="600" y="480" font-family="Arial, sans-serif" font-size="32" text-anchor="middle" fill="#fbbf24">Premium Visa Partner</text>
  
  <!-- Tagline -->
  <text x="600" y="530" font-family="Arial, sans-serif" font-size="24" text-anchor="middle" fill="#ffffff" opacity="0.8">Your Trusted Visa &amp; Travel Partner</text>
</svg>
